<mxfile host="app.diagrams.net" modified="2020-10-09T08:28:02.312Z" agent="5.0 (Windows NT 10.0; Win64; x64) AppleWebKit/537.36 (KHTML, like Gecko) Chrome/86.0.4240.75 Safari/537.36" etag="p4CspD8vaL-RJjDhif2A" version="13.7.9" type="github">
  <diagram id="ip2z6bq11kLtcTajnfLq" name="Page-1">
    <mxGraphModel dx="1102" dy="624" grid="1" gridSize="10" guides="1" tooltips="1" connect="1" arrows="1" fold="1" page="1" pageScale="1" pageWidth="850" pageHeight="1100" math="0" shadow="0">
      <root>
        <mxCell id="0" />
        <mxCell id="1" parent="0" />
      </root>
    </mxGraphModel>
  </diagram>
</mxfile>
